<svg xmlns="http://www.w3.org/2000/svg" data-name="Layer 1" width="528.7172241210938" height="699.767822265625"><rect id="backgroundrect" width="100%" height="100%" x="0" y="0" fill="none" stroke="none"/><title>Login</title><g class="currentLayer" style=""><title>Layer 1</title><rect y="17.063419342041016" width="444" height="657" fill="#242424" id="svg_1" class="" fill-opacity="1"/><polygon points="323 691.063 0 674.063 0 17.063 323 0.063 323 691.063" fill="#919191" id="svg_2" class="" fill-opacity="1"/><circle cx="296" cy="377.06341552734375" r="4" fill="#535461" id="svg_3"/><polygon points="296 377.66 298.773 382.463 301.545 387.265 296 387.265 290.455 387.265 293.227 382.463 296 377.66" fill="#535461" id="svg_4"/><polygon points="337 691.063 317.217 691 318 0.063 337 0.063 337 691.063" fill="#484848" id="svg_5" class="" fill-opacity="1"/><circle cx="296" cy="348.06341552734375" r="13" opacity="0.1" id="svg_8"/><circle cx="296" cy="346.06341552734375" r="13" fill="#535461" id="svg_9"/><line x1="52.81943130493164" y1="16.107990264892578" x2="52.81943130493164" y2="677.1561889648438" fill="none" stroke="#000" stroke-miterlimit="10" stroke-width="2" opacity="0.1" id="svg_10"/><line x1="109.81942749023438" y1="12.107990264892578" x2="109.81942749023438" y2="679.1561889648438" fill="none" stroke="#000" stroke-miterlimit="10" stroke-width="2" opacity="0.1" id="svg_11"/><line x1="166.81942749023438" y1="9.107990264892578" x2="166.81942749023438" y2="683" fill="none" stroke="#000" stroke-miterlimit="10" stroke-width="2" opacity="0.1" id="svg_12"/><line x1="223.81942749023438" y1="6.10798978805542" x2="223.81942749023438" y2="687.1561889648438" fill="none" stroke="#000" stroke-miterlimit="10" stroke-width="2" opacity="0.1" id="svg_13"/><line x1="280.8194274902344" y1="3.107990026473999" x2="280.8194274902344" y2="688" fill="none" stroke="#000" stroke-miterlimit="10" stroke-width="2" opacity="0.1" id="svg_14"/><ellipse cx="463.21722412109375" cy="95.32341003417969" rx="39.5" ry="37" fill="#2f2e41" id="svg_15"/><path d="M348.2172120605469,325.82340639160157 l-10,14 s-48,10 -30,25 s44,-14 44,-14 l14,-18 z" fill="#ffb8b8" id="svg_16"/><path d="M400.2172120605469,166.82340639160157 s-13,0 -16,18 s-6,78 -6,78 s-42,55 -35,62 s15,20 20,18 s48,-61 48,-61 z" fill="#6c63ff" id="svg_17"/><path d="M400.2172120605469,166.82340639160157 s-13,0 -16,18 s-6,78 -6,78 s-42,55 -35,62 s15,20 20,18 s48,-61 48,-61 z" opacity="0.1" id="svg_18"/><path d="M440.2172120605469,115.82340639160157 s-1,39 -13,41 s-8,15 -8,15 s39,23 65,0 l5,-12 s-18,-13 -10,-31 z" fill="#ffb8b8" id="svg_19"/><path d="M373.2172120605469,355.82340639160157 s-59,110 -37,144 s55,104 60,104 s33,-14 31,-23 s-32,-76 -40,-82 s-4,-22 -3,-23 s34,-54 34,-54 s-1,84 3,97 s-1,106 4,110 s28,11 32,5 s16,-97 8,-118 l15,-144 z" fill="#2f2e41" id="svg_20"/><path d="M427.2172120605469,622.8234063916016 l-25,46 s-36,26 -11,30 s40,-6 40,-6 l22,-16 v-46 z" fill="#2f2e41" id="svg_21"/><path d="M393.2172120605469,596.8234063916016 l13,31 s5,13 0,16 s-19,21 -10,23 a29.29979,29.29979 0 0 0 5.49538,0.5463 a55.56592,55.56592 0 0 0 40.39768,-16.43936 l8.10694,-8.10694 s-27.77007,-63.94827 -27.385,-63.47414 S393.2172120605469,596.8234063916016 393.2172120605469,596.8234063916016 z" fill="#2f2e41" id="svg_22"/><circle cx="465.21722412109375" cy="105.82341003417969" r="34" fill="#ffb8b8" id="svg_23"/><path d="M484.7172120605469,153.32340639160157 l-10.5,10.5 s-32,12 -47,0 c0,0 5.5,-11.5 5.5,-10.5 s-43.5,7.5 -47.5,25.5 s3,49 3,49 s-28,132 -17,135 s114,28 113,9 s8,-97 8,-97 l35,-67 s-5,-22 -17,-29 S484.7172120605469,153.32340639160157 484.7172120605469,153.32340639160157 z" fill="#6c63ff" id="svg_24" class=""/><path d="M440.2172120605469,348.82340639160157 l-13,8 s-50,34 -24,40 s41,-24 41,-24 l10,-12 z" fill="#ffb8b8" id="svg_25"/><path d="M514.2172120605469,201.82340639160157 l9,9 s6,84 -6,101 s-67,63 -70,60 s-22,-18 -18,-20 s57.18287,-57.56942 57.18287,-57.56942 l-4.18287,-77.43058 z" opacity="0.1" id="svg_26"/><path d="M518.2172120605469,198.82340639160157 l9,9 s6,84 -6,101 s-67,63 -70,60 s-22,-18 -18,-20 s57.18287,-57.56942 57.18287,-57.56942 l-4.18287,-77.43058 z" fill="#6c63ff" id="svg_27"/><path d="M451.1556120605469,57.52853639160156 s-11.5575,-4.20273 -27.31774,4.72807 l8.40546,2.10136 s-12.60819,1.05068 -14.18421,17.8616 h5.7787500000000005 s-3.67739,14.70955 0,18.91228 l2.364,-4.4654 l6.82943,13.65887 l1.576,-6.82944 l3.15205,1.05069 l2.10137,-11.03217 s5.25341,7.88012 9.45614,8.40546 V95.09042639160157 s11.5575,13.13352 15.23489,12.60818 l-5.25341,-7.35477 l7.35477,1.576 l-3.152,-5.25341 l18.91228,5.25341 l-4.20273,-5.25341 l13.13352,4.20273 l6.3041,2.6267 s8.9308,-20.4883 -3.67739,-34.67251 S462.9757320605469,51.48710639160157 451.1556120605469,57.52853639160156 z" fill="#2f2e41" id="svg_28"/></g></svg>