<svg width="56" height="57" viewBox="0 0 56 57" fill="none" xmlns="http://www.w3.org/2000/svg">
<path d="M35.7776 48.9646H20.2221C13.1248 48.9646 9.0415 44.8813 9.0415 37.7841V18.3396C9.0415 11.2424 13.1248 7.15906 20.2221 7.15906H35.7776C42.8748 7.15906 46.9582 11.2424 46.9582 18.3396V37.7841C46.9582 44.8813 42.8748 48.9646 35.7776 48.9646ZM20.2221 10.0757C14.6609 10.0757 11.9582 12.7785 11.9582 18.3396V37.7841C11.9582 43.3452 14.6609 46.0479 20.2221 46.0479H35.7776C41.3387 46.0479 44.0415 43.3452 44.0415 37.7841V18.3396C44.0415 12.7785 41.3387 10.0757 35.7776 10.0757H20.2221Z" fill="#3667BF"/>
<path d="M40.6387 22.715H36.7498C33.7943 22.715 31.4026 20.3233 31.4026 17.3677V13.4788C31.4026 12.6816 32.0637 12.0205 32.8609 12.0205C33.6581 12.0205 34.3193 12.6816 34.3193 13.4788V17.3677C34.3193 18.7094 35.4081 19.7983 36.7498 19.7983H40.6387C41.4359 19.7983 42.097 20.4594 42.097 21.2566C42.097 22.0538 41.4359 22.715 40.6387 22.715Z" fill="#3667BF"/>
<path d="M27.9998 31.4646H20.222C19.4248 31.4646 18.7637 30.8035 18.7637 30.0063C18.7637 29.2091 19.4248 28.548 20.222 28.548H27.9998C28.797 28.548 29.4581 29.2091 29.4581 30.0063C29.4581 30.8035 28.797 31.4646 27.9998 31.4646Z" fill="#3667BF"/>
<path d="M35.7776 39.2428H20.222C19.4248 39.2428 18.7637 38.5817 18.7637 37.7845C18.7637 36.9873 19.4248 36.3262 20.222 36.3262H35.7776C36.5748 36.3262 37.2359 36.9873 37.2359 37.7845C37.2359 38.5817 36.5748 39.2428 35.7776 39.2428Z" fill="#3667BF"/>
</svg>
