<svg width="56" height="57" viewBox="0 0 56 57" fill="none" xmlns="http://www.w3.org/2000/svg">
<path d="M24.0925 48.9648C23.7036 48.9648 23.3925 48.887 23.1592 48.7898C22.3814 48.4981 21.0592 47.5454 21.0592 44.5315V31.9898H16.5092C13.9036 31.9898 12.9703 30.7648 12.6397 30.0454C12.3092 29.3065 12.0175 27.8092 13.7286 25.8454L28.4481 9.12314C30.4314 6.86758 32.0453 7.02314 32.8231 7.3148C33.6008 7.60647 34.9231 8.55925 34.9231 11.5731V24.1148H39.4731C42.0786 24.1148 43.0119 25.3398 43.3425 26.0592C43.673 26.7981 43.9647 28.2954 42.2536 30.2592L27.5342 46.9815C26.1536 48.5565 24.9481 48.9648 24.0925 48.9648ZM31.7536 10.0565C31.6953 10.1342 31.2869 10.3287 30.6453 11.0676L15.9258 27.7898C15.3814 28.412 15.3036 28.8009 15.3036 28.8787C15.3425 28.8981 15.6925 29.0926 16.5092 29.0926H22.5175C23.3147 29.0926 23.9758 29.7537 23.9758 30.5509V44.5509C23.9758 45.5231 24.1508 45.9509 24.2286 46.0676C24.2869 45.9898 24.6953 45.7954 25.3369 45.0565L40.0564 28.3342C40.6008 27.712 40.6786 27.3231 40.6786 27.2454C40.6397 27.2259 40.2897 27.0315 39.4731 27.0315H33.4647C32.6675 27.0315 32.0064 26.3704 32.0064 25.5731V11.5731C32.0258 10.6009 31.8314 10.1926 31.7536 10.0565Z" fill="#3667BF"/>
</svg>
