<svg width="56" height="57" viewBox="0 0 56 57" fill="none" xmlns="http://www.w3.org/2000/svg">
<path fill-rule="evenodd" clip-rule="evenodd" d="M19.0467 49.643H39.6663C48.1829 49.643 53.0829 44.743 53.0829 36.2263V19.893C53.0829 11.3763 48.1829 6.47632 39.6663 6.47632H16.3329C7.81626 6.47632 2.91626 11.3763 2.91626 19.893V34.4569C3.89737 33.3874 5.08535 32.5107 6.41626 31.8906V19.893C6.41626 13.2197 9.65959 9.97632 16.3329 9.97632H39.6663C46.3396 9.97632 49.5829 13.2197 49.5829 19.893V36.2263C49.5829 42.8997 46.3396 46.143 39.6663 46.143H21.3326C21.1147 46.6678 20.8556 47.1753 20.5567 47.6601C20.1285 48.384 19.6201 49.0477 19.0467 49.643Z" fill="#3667BF"/>
<path d="M28 36.8115C23.17 36.8115 19.25 32.8915 19.25 28.0615C19.25 23.2315 23.17 19.3115 28 19.3115C32.83 19.3115 36.75 23.2315 36.75 28.0615C36.75 32.8915 32.83 36.8115 28 36.8115ZM28 22.8115C25.1067 22.8115 22.75 25.1682 22.75 28.0615C22.75 30.9549 25.1067 33.3115 28 33.3115C30.8933 33.3115 33.25 30.9549 33.25 28.0615C33.25 25.1682 30.8933 22.8115 28 22.8115Z" fill="#3667BF"/>
<path d="M10.5 25.1449C9.54333 25.1449 8.75 24.3515 8.75 23.3949V19.8949C8.75 15.7182 12.1567 12.3115 16.3333 12.3115H19.8333C20.79 12.3115 21.5833 13.1049 21.5833 14.0615C21.5833 15.0182 20.79 15.8115 19.8333 15.8115H16.3333C14.0933 15.8115 12.25 17.6549 12.25 19.8949V23.3949C12.25 24.3515 11.4567 25.1449 10.5 25.1449Z" fill="#3667BF"/>
<path d="M45.4996 25.1449C44.5429 25.1449 43.7496 24.3515 43.7496 23.3949V19.8949C43.7496 17.6549 41.9063 15.8115 39.6663 15.8115H36.1663C35.2096 15.8115 34.4163 15.0182 34.4163 14.0615C34.4163 13.1049 35.2096 12.3115 36.1663 12.3115H39.6663C43.8429 12.3115 47.2496 15.7182 47.2496 19.8949V23.3949C47.2496 24.3515 46.4563 25.1449 45.4996 25.1449Z" fill="#3667BF"/>
<path d="M39.6663 43.8128H36.1663C35.2096 43.8128 34.4163 43.0195 34.4163 42.0628C34.4163 41.1062 35.2096 40.3128 36.1663 40.3128H39.6663C41.9063 40.3128 43.7496 38.4695 43.7496 36.2295V32.7295C43.7496 31.7728 44.5429 30.9795 45.4996 30.9795C46.4563 30.9795 47.2496 31.7728 47.2496 32.7295V36.2295C47.2496 40.4062 43.8429 43.8128 39.6663 43.8128Z" fill="#3667BF"/>
<path d="M11.0833 53.0282C7.21 53.0282 3.57001 50.9749 1.61001 47.6382C0.560006 45.9582 0 43.9749 0 41.9449C0 35.8316 4.97 30.8616 11.0833 30.8616C17.1967 30.8616 22.1667 35.8316 22.1667 41.9449C22.1667 43.9749 21.6067 45.9583 20.5567 47.6616C18.5967 50.9749 14.9567 53.0282 11.0833 53.0282ZM11.0833 34.3616C6.90667 34.3616 3.5 37.7682 3.5 41.9449C3.5 43.3216 3.87334 44.6749 4.59667 45.8415C5.95 48.1282 8.44667 49.5282 11.0833 49.5282C13.72 49.5282 16.2167 48.1282 17.57 45.8649C18.2933 44.6749 18.6667 43.3449 18.6667 41.9449C18.6667 37.7682 15.26 34.3616 11.0833 34.3616Z" fill="#3667BF"/>
<path d="M9.74994 46.0053C9.30661 46.0053 8.86328 45.842 8.51328 45.492L6.2033 43.182C5.52663 42.5054 5.52663 41.3852 6.2033 40.7086C6.87997 40.0319 7.99996 40.0319 8.67663 40.7086L9.79665 41.8287L13.5299 38.3752C14.2299 37.7219 15.3499 37.7687 16.0033 38.4687C16.6566 39.1687 16.61 40.2887 15.91 40.942L10.94 45.5386C10.59 45.8419 10.1699 46.0053 9.74994 46.0053Z" fill="#3667BF"/>
</svg>
