<svg width="56" height="57" viewBox="0 0 56 57" fill="none" xmlns="http://www.w3.org/2000/svg">
<path d="M28.0006 48.9841C25.8812 48.9841 23.7812 48.3619 22.1284 47.1369L13.7673 40.8953C11.5506 39.2425 9.82007 35.7814 9.82007 33.0397V18.573C9.82007 15.5786 12.0173 12.3897 14.8367 11.3397L24.5395 7.70358C26.4645 6.98414 29.4978 6.98414 31.4228 7.70358L41.1256 11.3397C43.9451 12.3897 46.1423 15.5786 46.1423 18.573V33.0203C46.1423 35.7814 44.4117 39.223 42.1951 40.8758L33.834 47.1175C32.2201 48.3619 30.1201 48.9841 28.0006 48.9841ZM25.5701 10.4453L15.8673 14.0814C14.2145 14.7036 12.7562 16.8036 12.7562 18.5925V33.0397C12.7562 34.8869 14.059 37.473 15.5173 38.5619L23.8784 44.8036C26.1145 46.4758 29.8867 46.4758 32.1423 44.8036L40.5034 38.5619C41.9812 37.4536 43.2645 34.8869 43.2645 33.0397V18.573C43.2645 16.8036 41.8062 14.7036 40.1534 14.0619L30.4506 10.4258C29.1284 9.95914 26.8728 9.95914 25.5701 10.4453Z" fill="#3667BF"/>
<path d="M25.3946 32.3979C25.0251 32.3979 24.6557 32.2617 24.364 31.9701L21.2335 28.8395C20.6696 28.2756 20.6696 27.3423 21.2335 26.7784C21.7974 26.2145 22.7307 26.2145 23.2946 26.7784L25.3946 28.8784L32.7251 21.5479C33.289 20.984 34.2224 20.984 34.7862 21.5479C35.3501 22.1117 35.3501 23.0451 34.7862 23.609L26.4251 31.9701C26.1335 32.2617 25.764 32.3979 25.3946 32.3979Z" fill="#3667BF"/>
</svg>
